# xmcd
#
# Track frame offsets:
#	150
#	18288
#	37428
#	52692
#	69693
#	102005
#	116700
#	131267
#	153489
#	172546
#	188781
#	209452
#
# Disc length: 2970 seconds
#
# Revision: 10
# Processed by: cddbd v1.5.2PL0 Copyright (c) Steve Scherf et al.
# Submitted via: Jack! The Knife 20 Magnifico
#
DISCID=9a0b980c
DTITLE=Halford - Resurrection
DYEAR=2000
DGENRE=Heavy Metal
TTITLE0=Resurrection
TTITLE1=Made In Hell
TTITLE2=Locked And Loaded
TTITLE3=Night Fall
TTITLE4=Silent Screams
TTITLE5=The One You Love To Hate
TTITLE6=Cyberworld
TTITLE7=Slow Down
TTITLE8=Twist
TTITLE9=Temptation
TTITLE10=Drive
TTITLE11=Saviour
EXTD=Roy Z
EXTT0=Halford, Lachman, Z, Baxter
EXTT1=Halford, Lachman, Baxter
EXTT2=Halford, Lachman, Z
EXTT3=Halford, Lachman, Chlasciak
EXTT4=Halford, Marlette
EXTT5=Halford, Z, Dickinson
EXTT6=Halford, Z, Chlasciak
EXTT7=Halford, Z, Marlette
EXTT8=Bob Halligan, Jr
EXTT9=Halford, Lachman, Z, Chlasciak
EXTT10=Halford, Z, Marlette
EXTT11=Halford, Lachman, Z
PLAYORDER=
